<svg t="1685932390694" class="icon" viewBox="0 0 1024 1024" version="1.1" xmlns="http://www.w3.org/2000/svg" p-id="1022" width="200" height="200"><path d="M780 895.6H243.5c-32.6 0-59.1-26.5-59.1-59.1V467.2c0-16.3 13.2-29.5 29.5-29.5s29.5 13.2 29.5 29.5v369.3H780V467.2c0-16.3 13.2-29.5 29.5-29.5s29.5 13.2 29.5 29.5v369.3c0.1 32.6-26.4 59.1-59 59.1z m0 0" fill="#0165FF" p-id="1023"></path><path d="M298.1 523.9c-30 0-56.9-6.3-80.1-18.7-0.4-0.2-0.8-0.5-1.3-0.7-54.8-29.8-88.9-86.9-88.9-149.4 0-11.8 4.8-25.1 52-128.2 11.2-24.6 21.9-47.8 28.7-63.7 9.3-21.6 30.6-35.6 54.2-35.6h499.8c23.8 0 45.1 14.1 54.4 36 6.7 15.9 17.1 39 28.1 63.5 46.2 102.7 50.8 115.9 50.8 127.7 0 62.2-33.9 119.5-88.6 149.3-23.4 12.8-50.8 19.4-81.2 19.6-39.8 0-77.6-13.6-107.7-38.1-29.7 24.2-66.9 37.9-106 38.2-39.6-0.2-77.1-13.9-107-38.1-30 24.4-67.7 38.1-107.2 38.2z m-51.6-70.4c14.4 7.5 31.7 11.3 51.5 11.3 32.7-0.1 63.6-14.5 84.7-39.6 5.6-6.7 13.9-10.5 22.6-10.5 8.7 0 17 3.8 22.6 10.5 20.9 24.8 51.6 39.1 84.4 39.3 32-0.3 62.6-14.6 83.4-39.4 11.2-13.4 34-13.4 45.3 0 21 25 51.9 39.4 84.9 39.4 20.4-0.1 38.3-4.2 53-12.3 34.9-19 56.9-55.2 57.8-94.9-4.4-14.3-29-69.2-45.6-106-11.2-24.9-21.8-48.4-28.6-64.6H262.7c-6.9 16.1-17.8 39.8-29.2 64.8-16.9 36.9-42.1 91.9-46.6 106.4 1 40 23.4 76.3 58.8 95.2 0.3 0.1 0.5 0.2 0.8 0.4z m516-266.8h0.1-0.1z m0 0" fill="#0165FF" p-id="1024"></path><path d="M548.7 792.2h-73.9V644.5c0-16.3 13.2-29.5 29.5-29.5h14.8c16.3 0 29.5 13.2 29.5 29.5v147.7z m0 0" fill="#47D5ED" p-id="1025"></path></svg>