<svg t="1685932767126" class="icon" viewBox="0 0 1024 1024" version="1.1" xmlns="http://www.w3.org/2000/svg" p-id="916" width="64" height="64"><path d="M488.064 740.864a19.2 19.2 0 0 1 19.168 18.0672l0.032 1.1328-0.0064 39.2512 29.1968-16.8512a19.2 19.2 0 0 1 20.16 32.6656l-0.96 0.5888-30.8608 17.8112 30.8608 17.8176 0.96 0.5888a19.2 19.2 0 0 1-20.16 32.6656l-29.1968-16.8576v33.12a19.2 19.2 0 0 1-38.3616 1.1264l-0.032-1.1264-0.0064-35.04-32.512 18.7776a19.2 19.2 0 0 1-20.16-32.6656l0.96-0.5888 30.848-17.8176-30.848-17.8112-0.96-0.5888a19.2 19.2 0 0 1 20.16-32.6656l32.512 18.7712v-41.1712a19.2 19.2 0 0 1 19.2-19.2zM454.4 115.2c132.4608 0 244.0384 89.4272 277.6448 211.2h51.9552c107.808 0 195.2 87.392 195.2 195.2S891.808 716.8 784 716.8H259.7248a146.176 146.176 0 0 1-13.8752-0.6592c-5.0944 0.4352-10.24 0.6592-15.4496 0.6592-98.9696 0-179.2-80.2304-179.2-179.2 0-77.1584 48.768-142.9312 117.1584-168.1728C185.088 226.2848 306.7648 115.2 454.4 115.2z m0 83.2c-103.104 0-189.6832 76.6464-203.0208 177.6128l-0.384 3.072a83.2 83.2 0 0 1-51.8848 67.648l-1.9456 0.7488A96.064 96.064 0 0 0 134.4 537.6c0 53.0176 42.9824 96 96 96 1.8752 0 3.7376-0.0512 5.5872-0.16l2.752-0.192a83.2 83.2 0 0 1 12.0064-0.16l2.9952 0.2304c1.312 0.128 2.6368 0.2112 3.968 0.256l2.016 0.0256H784c61.856 0 112-50.144 112-112 0-61.152-49.0112-110.8608-109.888-111.9808L784 409.6h-51.9488a83.2 83.2 0 0 1-79.648-59.136l-0.5568-1.9264C627.5648 260.544 547.0976 198.4 454.4 198.4z" p-id="917"></path></svg>